# xmcd
#
# Track frame offsets: 
#        150
#        24647
#        39041
#        54475
#        75995
#        102134
#        118902
#        142960
#        169883
#        193477
#        207395
#        229916
#        261732
#        282225
#
# Disc length: 4103 seconds
#
# Revision: 1
# Processed by: cddbd v1.5.2PL0 Copyright (c) Steve Scherf et al.
# Submitted via: ExactAudioCopy v0.95b3
#
DISCID=cb10050e
DTITLE=Various Artist - Nu Tango - The Style And The Passion [CD1]
DYEAR=2004
DGENRE=Tango
TTITLE0=Bajofondo Tango Club and Luciano Supervielle feat. Adriana Vorel
TTITLE0=a - Perfume (Remix By Compo)
TTITLE1=Carlos Libedinksy - Mi Buenos Aires Queri...
TTITLE2=Maria Eva Albistur - Dejar Vivir
TTITLE3=Astro Piazzolla - Revirado (John Beltran remix)
TTITLE4=Formula 3000 - Libertango
TTITLE5=Fernando Samalea - Invencion A Posteriori
TTITLE6=Astor Piazzolla - Ballada Para Mi Muerte (Projections remix)
TTITLE7=Gotan Project - Santa Maria (Del Buen Ayre)
TTITLE8=Mugwort - Buenos Aires at dusk
TTITLE9=Astor Piazzolla - Calambre (John Arnold remix)
TTITLE10=Mr. Tea - No Tengo Tango
TTITLE11=Astor Piazzolla - Verano Porteño (Nuspirit Helsinki remix)
TTITLE12=Andrés Linetzky and Ernesto Romeo - Sentimientos
TTITLE13=Astor Piazzolla - Vuelvo Al Sur (Koop remix)
EXTD=
EXTT0=
EXTT1=
EXTT2=
EXTT3=
EXTT4=
EXTT5=
EXTT6=
EXTT7=
EXTT8=
EXTT9=
EXTT10=
EXTT11=
EXTT12=
EXTT13=
PLAYORDER=
